<svg width="1200" height="360" viewBox="0 0 1200 360" fill="none" xmlns="http://www.w3.org/2000/svg">
  <rect width="1200" height="360" rx="36" fill="#102F38"/>
  <circle cx="130" cy="72" r="100" fill="#8FCFDC" fill-opacity="0.14"/>
  <circle cx="1080" cy="300" r="150" fill="#F5A78E" fill-opacity="0.12"/>
  <text x="76" y="86" fill="#F8F4ED" font-family="Arial, sans-serif" font-size="42" font-weight="700">A moment is enough.</text>
  <text x="76" y="126" fill="#BFD1D3" font-family="Arial, sans-serif" font-size="20">Capture it before it becomes a vague memory.</text>
  <g transform="translate(76 184)">
    <rect width="220" height="112" rx="24" fill="#173E48" stroke="#77C8D8" stroke-opacity="0.55"/>
    <circle cx="38" cy="39" r="15" fill="#94D5E1"/>
    <rect x="31" y="28" width="14" height="24" rx="7" fill="#173E48"/>
    <text x="68" y="46" fill="#F8F4ED" font-family="Arial, sans-serif" font-size="24" font-weight="700">CAPTURE</text>
    <text x="24" y="84" fill="#BFD1D3" font-family="Arial, sans-serif" font-size="17">voice or a quick note</text>
  </g>
  <path d="M318 240H383" stroke="#BFD1D3" stroke-width="3" stroke-linecap="round"/>
  <path d="M374 231L386 240L374 249" stroke="#BFD1D3" stroke-width="3" stroke-linecap="round" stroke-linejoin="round"/>
  <g transform="translate(402 184)">
    <rect width="220" height="112" rx="24" fill="#173E48" stroke="#B5A6E7" stroke-opacity="0.6"/>
    <rect x="27" y="30" width="29" height="36" rx="6" fill="#B5A6E7"/>
    <path d="M33 42H50M33 52H47" stroke="#173E48" stroke-width="3" stroke-linecap="round"/>
    <text x="76" y="46" fill="#F8F4ED" font-family="Arial, sans-serif" font-size="24" font-weight="700">SHAPE</text>
    <text x="24" y="84" fill="#BFD1D3" font-family="Arial, sans-serif" font-size="17">text, photos, and context</text>
  </g>
  <path d="M644 240H709" stroke="#BFD1D3" stroke-width="3" stroke-linecap="round"/>
  <path d="M700 231L712 240L700 249" stroke="#BFD1D3" stroke-width="3" stroke-linecap="round" stroke-linejoin="round"/>
  <g transform="translate(728 184)">
    <rect width="220" height="112" rx="24" fill="#173E48" stroke="#F5A78E" stroke-opacity="0.65"/>
    <circle cx="42" cy="47" r="20" stroke="#F5A78E" stroke-width="5"/>
    <path d="M42 36V48L51 55" stroke="#F5A78E" stroke-width="5" stroke-linecap="round" stroke-linejoin="round"/>
    <text x="78" y="46" fill="#F8F4ED" font-family="Arial, sans-serif" font-size="24" font-weight="700">RETURN</text>
    <text x="24" y="84" fill="#BFD1D3" font-family="Arial, sans-serif" font-size="17">calendar, export, and reflection</text>
  </g>
  <text x="1008" y="94" fill="#F5A78E" font-family="Arial, sans-serif" font-size="20">QingJi</text>
</svg>
